<svg width="80" height="67" viewBox="0 0 80 67" fill="none" xmlns="http://www.w3.org/2000/svg">
<path d="M61.6729 15.7148H78.9797V34.4454H69.6923V25.7646H61.6729V15.7148Z" fill="#CCA03E"/>
<path d="M27.2646 28.229L27.2803 52.4695H37.3546V28.229H27.2646Z" fill="#ffffff"/>
<path d="M22.9274 9.48487C24.8917 9.48487 26.5842 9.63023 27.8677 9.84995V0.841302C26.2376 0.553971 23.9361 0.401855 20.9007 0.401855C16.0228 0.401855 12.4471 1.35174 10.1455 3.19065C7.50673 5.30675 6.14516 9.12317 6.14516 14.5351V15.5695H0.530273V25.4401H6.14204V52.4729H15.8885V25.4401H21.9874V15.5695H15.826V13.8726C15.826 10.7288 17.987 9.48487 22.9243 9.48487H22.9274Z" fill="#ffffff"/>
<path d="M69.3547 37.2445C68.9206 38.5764 68.1586 39.7832 67.125 40.8581C65.4699 42.5821 63.415 43.4373 60.9729 43.4373C58.5309 43.4373 56.601 42.5855 54.9521 40.8581C53.2876 39.0665 52.4913 36.92 52.4913 34.4084C52.4913 31.8968 53.2876 29.7503 54.9521 28.0364C56.1388 26.7418 57.5097 25.9271 59.0774 25.5823V15.7117C54.4212 15.7421 50.4833 17.5337 47.3292 21.154C44.2126 24.7372 42.6387 29.1756 42.6387 34.405C42.6387 39.6344 44.2157 44.083 47.3292 47.7338C50.5083 51.317 54.4805 53.1085 59.1836 53.1085C64.2113 53.1085 68.1243 50.8843 69.108 47.7338V52.4663H78.9793V37.2412H69.3578L69.3547 37.2445Z" fill="#ffffff"/>
<path d="M37.3546 15.5696H27.2646V25.4402H37.3546V15.5696Z" fill="#ffffff"/>
<path d="M10.5484 65.9233H8.66536L6.29199 59.8759H7.65668L9.54601 64.8653H9.6678L11.5571 59.8759H12.9218L10.5516 65.9233H10.5484Z" fill="#ffffff"/>
<path d="M17.8464 65.9233H16.5879V59.8759H17.8464V65.9233ZM21.7468 60.9643H16.6191V59.8759H21.7468V60.9643ZM21.8155 65.9233H16.616V64.8348H21.8155V65.9233ZM21.65 63.3847H17.2437V62.3334H21.65V63.3847Z" fill="#ffffff"/>
<path d="M25.8438 59.8759H27.6581L30.5249 64.5272H30.5999L30.5593 62.2421V59.8759H31.8271V65.9233H30.0908L27.1522 61.157H27.0742L27.1148 63.5604V65.9233H25.8438V59.8759Z" fill="#ffffff"/>
<path d="M41.5774 60.9778H35.6846V59.8759H41.5774V60.9778ZM39.2727 65.9233H37.9861V60.339H39.2727V65.9233Z" fill="#ffffff"/>
<path d="M48.3665 66.1059C47.3516 66.1059 46.599 65.8524 46.1118 65.3453C45.6215 64.8383 45.3779 64.0878 45.3779 63.0974V59.8793H46.6583V63.0872C46.6583 63.6923 46.7957 64.1554 47.0705 64.4766C47.3453 64.7977 47.7794 64.9566 48.3665 64.9566C48.9536 64.9566 49.3877 64.7977 49.6594 64.4766C49.9342 64.1554 50.0716 63.6923 50.0716 63.0872V59.8793H51.352V63.0974C51.352 64.0878 51.1084 64.8383 50.6212 65.3453C50.134 65.8524 49.3814 66.1059 48.3665 66.1059Z" fill="#ffffff"/>
<path d="M56.7984 65.9233H55.543V59.8758H56.7984V65.9233ZM61.3577 65.9233H59.9993L59.8431 65.014C59.7994 64.7503 59.737 64.5339 59.6558 64.3649C59.5746 64.1959 59.4559 64.0708 59.2966 63.9897C59.1374 63.9086 58.9157 63.868 58.6315 63.868L56.4236 63.8579V62.8302H58.8376C59.2154 62.8235 59.4934 62.7356 59.6651 62.57C59.8369 62.4043 59.9243 62.1778 59.9243 61.8939V61.8466C59.9243 61.566 59.84 61.3463 59.6714 61.1874C59.5027 61.0285 59.2311 60.9508 58.8532 60.9508H56.4267V59.8724H58.9968C59.7619 59.8724 60.3241 60.0212 60.6801 60.3186C61.0361 60.6161 61.2141 61.0387 61.2141 61.5863V61.6437C61.2141 62.0663 61.1048 62.3976 60.8893 62.6342C60.6738 62.8708 60.3428 63.0128 59.8962 63.0635V63.2562L59.5121 63.0567C59.89 63.0804 60.1867 63.1615 60.3959 63.29C60.6082 63.4218 60.7675 63.6077 60.8768 63.8477C60.9861 64.0877 61.0735 64.392 61.1422 64.7537L61.3608 65.9165L61.3577 65.9233Z" fill="#ffffff"/>
<path d="M66.5007 65.9233H65.2422V59.8759H66.5007V65.9233ZM70.4011 60.9643H65.2734V59.8759H70.4011V60.9643ZM70.473 65.9233H65.2734V64.8348H70.473V65.9233ZM70.3043 63.3847H65.898V62.3334H70.3043V63.3847Z" fill="#ffffff"/>
<path d="M76.9436 66.0754C76.572 66.0754 76.2222 66.045 75.8975 65.9875C75.5727 65.93 75.2823 65.8557 75.0199 65.7712C74.7576 65.6833 74.5328 65.5988 74.3454 65.5176L74.2111 64.2365C74.5421 64.4055 74.9481 64.5644 75.4228 64.7064C75.8975 64.8483 76.4034 64.9227 76.9405 64.9227C77.4776 64.9227 77.8524 64.8652 78.0866 64.7435C78.3208 64.6252 78.4363 64.4393 78.4363 64.1824V64.1689C78.4363 63.9931 78.3864 63.8545 78.2864 63.7531C78.1865 63.6517 78.0148 63.5739 77.7743 63.5131C77.5338 63.4522 77.1934 63.4049 76.7625 63.3644C76.1535 63.3035 75.6601 63.2089 75.2791 63.077C74.9013 62.9452 74.6233 62.7559 74.4516 62.5057C74.2767 62.2556 74.1924 61.9277 74.1924 61.5221V61.4984C74.1924 60.9136 74.4079 60.4741 74.8357 60.1767C75.2635 59.8792 75.9162 59.7305 76.7875 59.7305C77.3652 59.7305 77.8586 59.7812 78.2708 59.886C78.683 59.9908 79.0297 60.1091 79.3107 60.2409L79.4544 61.4105C79.1171 61.2449 78.7299 61.1063 78.2989 60.9981C77.8649 60.8899 77.4027 60.8358 76.9061 60.8358C76.5439 60.8358 76.2628 60.8629 76.0567 60.9204C75.8506 60.9778 75.7101 61.0522 75.6289 61.1502C75.5477 61.2483 75.5071 61.3666 75.5071 61.5085C75.5071 61.6573 75.5477 61.779 75.6289 61.877C75.7101 61.975 75.8694 62.0562 76.1067 62.1204C76.344 62.1846 76.6907 62.2421 77.1528 62.2894C77.7493 62.3502 78.2427 62.4381 78.6268 62.5564C79.0109 62.6748 79.2951 62.8573 79.4825 63.1007C79.6667 63.3441 79.7604 63.6855 79.7604 64.1249V64.1587C79.7604 64.8145 79.5293 65.2979 79.064 65.6089C78.6018 65.9199 77.8961 66.0754 76.9467 66.0754H76.9436Z" fill="#ffffff"/>
</svg>
