<svg xmlns="http://www.w3.org/2000/svg" width="292" height="72" fill="none"><g clip-path="url(#a)"><path fill="url(#b)" d="M81.425 4.483v42.138a1.128 1.128 0 0 1-1.812.899l-8.185-6.213V18.88c0-.922-1.051-1.452-1.801-.9L55.16 28.965l-7.816-5.936L75.572 1.591a3.642 3.642 0 0 1 4.422 0c.45.345.808.783 1.062 1.279a3.53 3.53 0 0 1 .381 1.613h-.011Z"/><path fill="#fff" d="M80.306 48.603c-.427 0-.843-.138-1.2-.403l-8.186-6.213a.846.846 0 0 1-.335-.668V18.89a.28.28 0 0 0-.15-.253.264.264 0 0 0-.3.023L55.681 29.644a.85.85 0 0 1-1.028 0l-7.816-5.936a.846.846 0 0 1-.335-.668.83.83 0 0 1 .335-.669L75.053.922a4.51 4.51 0 0 1 5.45 0 4.523 4.523 0 0 1 1.304 1.58c.312.61.462 1.301.462 1.993v42.137c0 .75-.416 1.43-1.097 1.764a1.962 1.962 0 0 1-.877.207h.011Zm-8.024-7.722 7.85 5.959a.264.264 0 0 0 .301.023.261.261 0 0 0 .15-.254V4.483c0-.438-.104-.864-.288-1.244a2.953 2.953 0 0 0-.82-.991 2.844 2.844 0 0 0-3.394 0L48.742 23.005l6.42 4.875 13.957-10.592a1.994 1.994 0 0 1 2.078-.184 1.962 1.962 0 0 1 1.085 1.763v22.014Z"/><path fill="url(#c)" d="M71.428 18.867v10.246l-8.024 6.098-8.243-6.259 14.466-10.984c.75-.553 1.801-.023 1.801.9Z"/><path fill="#fff" d="M63.404 36.052a.82.82 0 0 1-.508-.173l-8.243-6.258a.846.846 0 0 1-.335-.669.83.83 0 0 1 .335-.668L69.12 17.3a1.994 1.994 0 0 1 2.078-.185 1.962 1.962 0 0 1 1.085 1.764v10.246a.846.846 0 0 1-.334.669l-8.024 6.097a.845.845 0 0 1-.508.172l-.012-.011Zm-6.834-7.1 6.846 5.198 7.18-5.451v-9.82a.28.28 0 0 0-.15-.254.264.264 0 0 0-.3.023L56.582 28.952h-.011Z"/><path fill="url(#d)" d="M91.552 14.845V60.9a4.545 4.545 0 0 1-1.778 3.596l-.266.196a4.51 4.51 0 0 1-5.472 0L24.626 19.57s-.024-.011-.035-.023c-.74-.518-1.778 0-1.778.922v21.196l-8.936 6.788a1.127 1.127 0 0 1-1.801-.91V5.659c0-1.406.658-2.731 1.79-3.584l.23-.173a4.51 4.51 0 0 1 5.473 0L47.38 23.028l7.816 5.936 8.244 6.258 8.023 6.097 8.186 6.212c.75.565 1.812.035 1.812-.899V4.483c0-.564-.127-1.117-.38-1.613a3.782 3.782 0 0 0-1.063-1.28l1.443 1.096 6.558 4.979a9.03 9.03 0 0 1 3.567 7.18h-.034Z"/><path fill="#fff" d="M86.782 66.456a5.403 5.403 0 0 1-3.255-1.095L24.163 20.273s-.047-.023-.058-.034a.262.262 0 0 0-.289-.012c-.058.035-.15.104-.15.242v21.196a.846.846 0 0 1-.335.668l-8.936 6.789s-.046.034-.069.046a1.96 1.96 0 0 1-2.02.138 1.962 1.962 0 0 1-1.085-1.763V5.659c0-1.66.796-3.25 2.124-4.253l.22-.173a5.36 5.36 0 0 1 6.499 0l60.08 45.63a.264.264 0 0 0 .3.023.262.262 0 0 0 .15-.254V4.483c0-.438-.104-.864-.288-1.244a2.95 2.95 0 0 0-.82-.992.844.844 0 0 1-.15-1.187.86.86 0 0 1 1.19-.161l8 6.085c2.436 1.856 3.902 4.784 3.902 7.85v46.055a5.34 5.34 0 0 1-2.113 4.265l-.277.207a5.309 5.309 0 0 1-3.244 1.084l-.011.011ZM25.145 18.89l59.41 45.123a3.694 3.694 0 0 0 4.445 0l.277-.208a3.645 3.645 0 0 0 1.443-2.916V14.845a8.212 8.212 0 0 0-3.232-6.5L82.28 4.39v42.241c0 .75-.416 1.43-1.097 1.764a1.967 1.967 0 0 1-2.078-.196l-60.08-45.64a3.694 3.694 0 0 0-4.445 0l-.22.173a3.688 3.688 0 0 0-1.454 2.916v41.895c0 .15.092.23.15.253.058.035.173.07.289-.023.011 0 .034-.023.046-.034l8.566-6.512v-20.78a1.96 1.96 0 0 1 1.074-1.753 1.965 1.965 0 0 1 2.009.116l.104.069v.011Z"/><path fill="url(#e)" d="m89.507 64.693-2.736 2.074-2.875 2.179a9.036 9.036 0 0 1-10.933 0L45.971 48.442l-8.243-6.258-7.816-5.936-7.112-5.394V20.458c0-.91 1.04-1.44 1.778-.922L84.035 64.68a4.51 4.51 0 0 0 5.472 0v.012Z"/><path fill="#fff" d="M78.436 71.631a9.884 9.884 0 0 1-5.98-2.005L22.291 31.534a.846.846 0 0 1-.335-.669V20.47a1.96 1.96 0 0 1 1.074-1.752 1.95 1.95 0 0 1 2.044.139l59.48 45.168a3.694 3.694 0 0 0 4.444 0 .85.85 0 0 1 1.19.162.846.846 0 0 1-.162 1.187l-5.6 4.253a9.883 9.883 0 0 1-5.98 2.005h-.011ZM23.654 30.44l49.817 37.838c2.921 2.213 6.996 2.213 9.906 0l2.505-1.901a5.364 5.364 0 0 1-2.355-1.015L24.07 20.216c-.092-.07-.208-.035-.265 0-.058.034-.15.104-.15.242v9.98Z"/><path fill="url(#f)" d="M45.97 48.453 18.495 69.326a9.036 9.036 0 0 1-10.933 0L4.778 67.23 2.4 65.418a3.954 3.954 0 0 0 4.756 0l30.572-23.212 8.243 6.258v-.012Z"/><path fill="#fff" d="M13.021 72a9.858 9.858 0 0 1-5.98-2.005l-5.15-3.907a.857.857 0 0 1-.16-1.188.86.86 0 0 1 1.188-.161 3.12 3.12 0 0 0 3.74 0l30.572-23.212a.85.85 0 0 1 1.027 0l8.244 6.258a.846.846 0 0 1 .334.668.83.83 0 0 1-.334.669L19.024 69.995A9.858 9.858 0 0 1 13.044 72h-.023Zm-7.216-5.06 2.252 1.706a8.237 8.237 0 0 0 9.917 0l26.588-20.204-6.835-5.198L7.676 66.088c-.566.426-1.2.714-1.859.852h-.011Z"/><path fill="url(#g)" d="M37.728 42.195 7.158 65.407a3.954 3.954 0 0 1-4.757 0 3.78 3.78 0 0 1-1.143-1.383 3.904 3.904 0 0 1-.416-1.74V16.401a8.996 8.996 0 0 1 3.567-7.18l7.643-5.798 1.79-1.348a4.517 4.517 0 0 0-1.79 3.584v41.895c0 .934 1.05 1.464 1.801.91l8.936-6.788 7.112-5.405 7.816 5.936.011-.012Z"/><path fill="#fff" d="M4.78 67.056a4.756 4.756 0 0 1-2.887-.968 4.666 4.666 0 0 1-1.385-1.683 4.846 4.846 0 0 1-.497-2.121V16.401a9.892 9.892 0 0 1 3.902-7.849l9.421-7.157a.86.86 0 0 1 1.19.161.857.857 0 0 1-.162 1.187 3.695 3.695 0 0 0-1.444 2.916v41.895c0 .15.093.23.15.254.058.035.174.07.29-.023.01 0 .034-.023.045-.035l16.002-12.16a.85.85 0 0 1 1.027 0l7.816 5.937a.846.846 0 0 1 .335.668.83.83 0 0 1-.335.669L7.677 66.088a4.79 4.79 0 0 1-2.898.968Zm6.464-61.95L4.93 9.9a8.25 8.25 0 0 0-3.232 6.512v45.884c0 .46.115.933.323 1.371.22.427.52.795.889 1.084a3.12 3.12 0 0 0 3.74 0l29.683-22.544-6.42-4.876-15.527 11.802s-.047.035-.07.046a1.96 1.96 0 0 1-2.02.139 1.962 1.962 0 0 1-1.085-1.764V5.66c0-.184 0-.369.023-.553h.011Z"/><path fill="#2E3141" d="M115.646 56.464V16.458h6.8l12.942 31.857 12.942-31.857h6.904v40.005h-6.8V44.154c0-8.045 0-10.396.381-13.243L138.62 56.475h-6.465L122.007 30.97c.381 2.409.439 6.19.439 11.168v14.338h-6.8v-.011Zm43.526-7.722c0-4.98 3.613-8.103 10.032-8.599l8.116-.599v-.6c0-3.664-2.193-5.14-5.587-5.14-3.949 0-6.142 1.637-6.142 4.484h-5.704c0-5.855 4.826-9.682 12.169-9.682 7.342 0 11.787 3.942 11.787 11.434v16.424h-5.865l-.496-4c-1.155 2.79-4.826 4.703-9.04 4.703-5.761 0-9.259-3.343-9.259-8.425h-.011Zm18.206-3.228v-1.417l-5.645.438c-4.168.38-5.761 1.752-5.761 3.941 0 2.467 1.639 3.666 4.664 3.666 4.11 0 6.742-2.467 6.742-6.628Zm21.646-16.965c4.052 0 7.239 1.694 8.82 4.599l.381-3.723h6.2v25.667c0 9.036-5.426 14.672-14.2 14.672-7.782 0-13.104-4.437-13.924-11.652h6.685c.439 3.503 3.129 5.578 7.239 5.578 4.606 0 7.562-2.904 7.562-7.388V51.82c-1.697 2.512-5.045 4.103-8.936 4.103-7.678 0-12.723-5.751-12.723-13.577s5.149-13.796 12.884-13.796h.012Zm1.155 21.564c4.606 0 7.458-3.227 7.458-7.941s-2.794-7.768-7.458-7.768c-4.665 0-7.297 3.342-7.297 7.768s2.909 7.941 7.297 7.941Zm43.467-20.688v27.039h-6.2l-.496-3.608c-1.64 2.57-5.149 4.322-8.774 4.322-6.246 0-9.918-4.218-9.918-10.834V29.436h6.685v14.557c0 5.14 2.032 7.226 5.761 7.226 4.225 0 6.246-2.466 6.246-7.606V29.436h6.684l.012-.011Zm21.162 6.074h-2.47c-4.826 0-7.839 2.57-7.839 7.825v13.14h-6.685V29.482h6.304l.381 3.942c1.154-2.685 3.729-4.483 7.342-4.483.935 0 1.871.103 2.956.38v6.19l.011-.012Zm.219 7.445c0-8.483 5.541-14.338 13.484-14.338s13.266 5.417 13.266 13.843v2.028l-20.389.058c.497 4.76 3.013 7.169 7.458 7.169 3.671 0 6.084-1.43 6.858-4h6.2c-1.155 5.913-6.085 9.463-13.162 9.463-8.058 0-13.704-5.855-13.704-14.234l-.011.011Zm6.523-2.685h13.6c0-3.723-2.575-6.19-6.581-6.19s-6.361 2.133-7.019 6.19Z"/></g><defs><linearGradient id="b" x1="90.004" x2="16.53" y1="30.07" y2="-9.947" gradientUnits="userSpaceOnUse"><stop stop-color="#FDA052"/><stop offset=".37" stop-color="#B96AF7"/><stop offset=".44" stop-color="#916DF5"/><stop offset=".55" stop-color="#5D72F4"/><stop offset=".63" stop-color="#3C75F3"/><stop offset=".67" stop-color="#3077F3"/><stop offset=".72" stop-color="#3180F3"/><stop offset=".81" stop-color="#3599F4"/><stop offset=".92" stop-color="#3BC1F6"/><stop offset="1" stop-color="#41E6F8"/></linearGradient><linearGradient id="c" x1="43.847" x2="73.302" y1="50.044" y2="18.115" gradientUnits="userSpaceOnUse"><stop stop-color="#FDA052"/><stop offset=".37" stop-color="#B96AF7"/><stop offset=".44" stop-color="#916DF5"/><stop offset=".55" stop-color="#5D72F4"/><stop offset=".63" stop-color="#3C75F3"/><stop offset=".67" stop-color="#3077F3"/><stop offset=".72" stop-color="#3180F3"/><stop offset=".81" stop-color="#3599F4"/><stop offset=".92" stop-color="#3BC1F6"/><stop offset="1" stop-color="#41E6F8"/></linearGradient><linearGradient id="d" x1="14.616" x2="94.06" y1="52.026" y2="11.867" gradientUnits="userSpaceOnUse"><stop stop-color="#FDA052"/><stop offset=".37" stop-color="#B96AF7"/><stop offset=".44" stop-color="#916DF5"/><stop offset=".55" stop-color="#5D72F4"/><stop offset=".63" stop-color="#3C75F3"/><stop offset=".67" stop-color="#3077F3"/><stop offset=".72" stop-color="#3180F3"/><stop offset=".81" stop-color="#3599F4"/><stop offset=".92" stop-color="#3BC1F6"/><stop offset="1" stop-color="#41E6F8"/></linearGradient><linearGradient id="e" x1="86.505" x2="18.435" y1="70.651" y2="20.994" gradientUnits="userSpaceOnUse"><stop stop-color="#FDA052"/><stop offset=".37" stop-color="#B96AF7"/><stop offset=".44" stop-color="#916DF5"/><stop offset=".55" stop-color="#5D72F4"/><stop offset=".63" stop-color="#3C75F3"/><stop offset=".67" stop-color="#3077F3"/><stop offset=".72" stop-color="#3180F3"/><stop offset=".81" stop-color="#3599F4"/><stop offset=".92" stop-color="#3BC1F6"/><stop offset="1" stop-color="#41E6F8"/></linearGradient><linearGradient id="f" x1="3.728" x2="69.655" y1="72.173" y2="24.917" gradientUnits="userSpaceOnUse"><stop stop-color="#FDA052"/><stop offset=".37" stop-color="#B96AF7"/><stop offset=".44" stop-color="#916DF5"/><stop offset=".55" stop-color="#5D72F4"/><stop offset=".63" stop-color="#3C75F3"/><stop offset=".67" stop-color="#3077F3"/><stop offset=".72" stop-color="#3180F3"/><stop offset=".81" stop-color="#3599F4"/><stop offset=".92" stop-color="#3BC1F6"/><stop offset="1" stop-color="#41E6F8"/></linearGradient><linearGradient id="g" x1="56.593" x2="-14.988" y1="8.425" y2="47.91" gradientUnits="userSpaceOnUse"><stop stop-color="#FDA052"/><stop offset=".37" stop-color="#B96AF7"/><stop offset=".44" stop-color="#916DF5"/><stop offset=".55" stop-color="#5D72F4"/><stop offset=".63" stop-color="#3C75F3"/><stop offset=".67" stop-color="#3077F3"/><stop offset=".72" stop-color="#3180F3"/><stop offset=".81" stop-color="#3599F4"/><stop offset=".92" stop-color="#3BC1F6"/><stop offset="1" stop-color="#41E6F8"/></linearGradient><clipPath id="a"><path fill="#fff" d="M0 0h291.892v72H0z"/></clipPath></defs></svg>